<svg xmlns="http://www.w3.org/2000/svg" viewBox="0 0 17 16" shape-rendering="crispEdges">
  <g fill="#64dd6c">
    <rect x="7" y="0" width="3" height="1"/>
    <rect x="6" y="1" width="5" height="3"/>
    <rect x="7" y="4" width="3" height="1"/>
    <rect x="1" y="5" width="4" height="1"/><rect x="12" y="5" width="4" height="1"/>
    <rect x="0" y="6" width="6" height="1"/><rect x="11" y="6" width="6" height="1"/>
    <rect x="0" y="7" width="6" height="1"/><rect x="7" y="7" width="3" height="1"/><rect x="11" y="7" width="6" height="1"/>
    <rect x="1" y="8" width="4" height="1"/><rect x="7" y="8" width="3" height="1"/><rect x="12" y="8" width="4" height="1"/>
    <rect x="7" y="9" width="3" height="1"/>
    <rect x="4" y="10" width="3" height="1"/><rect x="10" y="10" width="3" height="1"/>
    <rect x="3" y="11" width="4" height="1"/><rect x="10" y="11" width="4" height="1"/>
    <rect x="2" y="12" width="5" height="1"/><rect x="10" y="12" width="5" height="1"/>
    <rect x="2" y="13" width="4" height="2"/><rect x="11" y="13" width="4" height="2"/>
    <rect x="3" y="15" width="2" height="1"/><rect x="12" y="15" width="2" height="1"/>
  </g>
</svg>
