<svg xmlns="http://www.w3.org/2000/svg" viewBox="0 0 14 13" shape-rendering="crispEdges">
  <g fill="#64dd6c">
    <rect x="2" y="0" width="2" height="1"/><rect x="10" y="0" width="2" height="1"/>
    <rect x="1" y="1" width="4" height="1"/><rect x="9" y="1" width="4" height="1"/>
    <rect x="1" y="2" width="5" height="1"/><rect x="8" y="2" width="5" height="1"/>
    <rect x="2" y="3" width="10" height="1"/>
    <rect x="3" y="4" width="8" height="1"/>
    <rect x="4" y="5" width="6" height="1"/>
    <rect x="5" y="6" width="4" height="1"/>
  </g>
  <g fill="#23a24c">
    <rect x="4" y="7" width="6" height="1"/>
    <rect x="3" y="8" width="8" height="1"/>
    <rect x="2" y="9" width="10" height="1"/>
    <rect x="1" y="10" width="5" height="1"/><rect x="8" y="10" width="5" height="1"/>
    <rect x="1" y="11" width="4" height="1"/><rect x="9" y="11" width="4" height="1"/>
    <rect x="2" y="12" width="2" height="1"/><rect x="10" y="12" width="2" height="1"/>
  </g>
</svg>
